<?xml version="1.0" standalone="no"?>
<!DOCTYPE svg PUBLIC "-//W3C//DTD SVG 20010904//EN"
 "http://www.w3.org/TR/2001/REC-SVG-20010904/DTD/svg10.dtd">
<svg version="1.0" xmlns="http://www.w3.org/2000/svg"
 width="512.000000pt" height="512.000000pt" viewBox="0 0 512.000000 512.000000"
 preserveAspectRatio="xMidYMid meet">

<g transform="translate(0.000000,512.000000) scale(0.100000,-0.100000)"
fill="#000000" stroke="none">
<path d="M1285 4794 c-191 -26 -297 -57 -415 -121 -261 -141 -439 -373 -517
-672 -31 -120 -36 -331 -9 -449 46 -210 135 -370 286 -522 152 -151 312 -240
522 -286 118 -27 329 -22 449 9 128 33 229 77 323 138 383 252 557 719 430
1156 -53 183 -133 316 -273 453 -146 143 -315 234 -511 274 -79 16 -235 27
-285 20z m238 -666 c79 -37 160 -116 200 -197 30 -61 32 -72 32 -171 0 -93 -3
-111 -27 -163 -38 -80 -117 -160 -197 -200 -61 -30 -72 -32 -171 -32 -93 0
-111 3 -163 27 -80 38 -160 117 -200 197 -30 61 -32 72 -32 171 0 93 3 112 27
162 47 101 147 190 251 224 70 23 210 14 280 -18z"/>
<path d="M2971 4790 c-90 -19 -183 -97 -224 -189 -15 -33 -20 -67 -20 -121 0
-127 7 -138 316 -447 l272 -273 -272 -272 c-309 -310 -317 -321 -317 -448 0
-90 22 -147 84 -214 64 -69 135 -100 230 -100 138 0 95 -37 947 816 849 850
806 800 807 939 0 94 -31 166 -100 229 -67 61 -124 83 -214 83 -127 0 -138 -7
-447 -316 l-273 -272 -272 272 c-203 202 -285 277 -318 292 -55 24 -140 33
-199 21z"/>
<path d="M4371 3425 c-34 -11 -70 -39 -153 -122 -95 -95 -111 -115 -125 -162
-13 -46 -14 -63 -3 -109 11 -49 22 -65 104 -150 50 -52 109 -104 131 -117 132
-77 308 -40 402 83 64 84 80 206 42 309 -17 46 -40 77 -112 150 -49 51 -104
99 -123 108 -48 22 -113 27 -163 10z"/>
<path d="M1188 2386 c-599 -106 -982 -688 -834 -1268 91 -359 372 -649 729
-752 101 -29 273 -50 337 -41 105 15 191 78 232 169 32 73 32 219 0 291 -51
112 -133 161 -294 175 -81 7 -112 14 -164 40 -83 41 -154 112 -196 197 -31 63
-33 74 -33 168 0 93 2 105 32 165 41 83 110 152 193 193 60 30 72 32 165 32
94 0 105 -2 168 -33 85 -42 156 -113 197 -196 26 -52 33 -83 40 -165 14 -159
64 -244 174 -293 73 -32 219 -32 292 0 63 29 116 81 146 147 20 43 23 65 21
155 -4 262 -101 500 -285 695 -143 152 -310 251 -506 301 -120 32 -300 40
-414 20z"/>
<path d="M3685 2394 c-191 -26 -297 -57 -415 -121 -261 -141 -439 -373 -517
-672 -31 -120 -36 -331 -9 -449 46 -210 135 -370 286 -522 152 -151 312 -240
522 -286 118 -27 329 -22 449 9 128 33 229 77 323 138 383 252 557 719 430
1156 -53 183 -133 316 -273 453 -146 143 -315 234 -511 274 -79 16 -235 27
-285 20z m238 -666 c79 -37 160 -116 200 -197 30 -61 32 -72 32 -171 0 -93 -3
-111 -27 -163 -38 -80 -117 -160 -197 -200 -61 -30 -72 -32 -171 -32 -93 0
-111 3 -163 27 -80 38 -160 117 -200 197 -30 61 -32 72 -32 171 0 93 3 112 27
162 47 101 147 190 251 224 70 23 210 14 280 -18z"/>
</g>
</svg>
