<?xml version="1.0" standalone="no"?>
<!DOCTYPE svg PUBLIC "-//W3C//DTD SVG 20010904//EN"
 "http://www.w3.org/TR/2001/REC-SVG-20010904/DTD/svg10.dtd">
<svg version="1.0" xmlns="http://www.w3.org/2000/svg"
 width="15" height="15" viewBox="0 0 512.000000 512.000000"
 preserveAspectRatio="xMidYMid meet">

<g transform="translate(0.000000,512.000000) scale(0.100000,-0.100000)"
fill="#666666" stroke="none">
<path d="M1355 5113 c-201 -24 -375 -76 -544 -163 -411 -213 -701 -605 -787
-1065 -18 -94 -19 -171 -19 -1325 0 -1154 1 -1231 19 -1325 115 -617 594
-1096 1211 -1211 94 -18 171 -19 1335 -19 l1235 0 105 23 c463 102 829 377
1039 782 68 130 109 247 143 400 l23 105 0 1235 c0 1164 -1 1241 -19 1335
-107 576 -532 1036 -1093 1185 -182 49 -210 50 -1453 48 -641 0 -1178 -3
-1195 -5z m1290 -1120 c63 -21 127 -85 148 -148 15 -43 17 -109 17 -542 l0
-493 493 0 c559 0 557 0 632 -75 45 -45 75 -115 75 -175 0 -60 -30 -130 -75
-175 -75 -75 -73 -75 -632 -75 l-493 0 0 -493 c0 -559 0 -557 -75 -632 -98
-98 -252 -98 -350 0 -75 75 -75 73 -75 632 l0 493 -493 0 c-559 0 -557 0 -632
75 -98 98 -98 252 0 350 75 75 73 75 632 75 l493 0 0 493 c0 559 0 557 75 632
69 70 164 91 260 58z"/>
</g>
</svg>
